<?xml version="1.0" encoding="utf-8"?>
<!-- Generator: Adobe Illustrator 22.1.0, SVG Export Plug-In . SVG Version: 6.00 Build 0)  -->
<svg version="1.1" id="Layer_1" xmlns="http://www.w3.org/2000/svg" xmlns:xlink="http://www.w3.org/1999/xlink" x="0px" y="0px"
	 viewBox="0 0 600 600" style="enable-background:new 0 0 600 600;" xml:space="preserve">
<style type="text/css">
	.st0{fill:#414549;}
</style>
<path class="st0" d="M307.2,12.6C266.4,12.6,53,587,53,587h514.6C567.7,587,348,12.6,307.2,12.6z M390.4,232.4
	c-7.9-9.1-26.1-24.4-43.6,4.3c-0.3,0.5-0.8,0.5-1.1,0c-3.7-7.4-27.4-50.9-55.2-3.7c-1.4,2.5-4,2.6-5.7,0.3
	c-7.1-9.3-26.3-27.5-50.5,0.9c-0.6,0.8-1.4-0.3-1.1-1.4c11-29.1,66.6-175.8,75-172.2c8.2,3.6,68.9,138.7,83.2,170.5
	C391.8,232.1,391,233.2,390.4,232.4z"/>
</svg>
