<?xml version="1.0" encoding="utf-8"?>
<!-- Generator: Adobe Illustrator 22.1.0, SVG Export Plug-In . SVG Version: 6.00 Build 0)  -->
<svg version="1.1" id="Layer_1" xmlns="http://www.w3.org/2000/svg" xmlns:xlink="http://www.w3.org/1999/xlink" x="0px" y="0px"
	 viewBox="0 0 600 600" style="enable-background:new 0 0 600 600;" xml:space="preserve">
<style type="text/css">
	.st0{fill:#414549;}
</style>
<path class="st0" d="M443.5,297.9c-14.9,1.1-94.6,135.4-94.6,135.4S204.7,143.4,185.5,143.4C167.4,143.4,9.1,495.2,4.8,526H590
	C589.9,526,465.9,296.3,443.5,297.9z M237.4,279c-6.3-4.2-16.4-7.5-25.4,5c-0.7,1-2.2,1.1-3,0.1c-4.8-5.3-19.6-18.3-35.8,0.1
	c-0.8,0.9-2.2,0.9-3,0c-4.3-4.8-17.4-16.5-33.1-4.2c-1.5,1.2-3.7-0.3-3-1.9c10.1-25.4,45.6-103.3,53.8-105.1
	c8.3-1.8,44,78.4,55.5,103.8C244.1,278.6,239,280.1,237.4,279z M479.8,376.1c-5.2-3-12.9-5.1-18.6,2.9c-0.5,0.8-1.6,0.9-2.2,0.2
	c-3.4-3.4-13.5-11.5-23.3-0.1c-0.6,0.7-1.6,0.7-2.2,0c-3.2-3.7-13-12.9-25.3-4.3c-1.3,0.9-2.9-0.5-2.1-1.8
	c8.6-16.3,33.1-53.6,38.5-54.9c5.5-1.3,28.3,39.7,38.3,55.9C483.6,375.3,481.2,376.9,479.8,376.1z"/>
</svg>
