<?xml version="1.0" encoding="utf-8"?>
<!-- Generator: Adobe Illustrator 22.1.0, SVG Export Plug-In . SVG Version: 6.00 Build 0)  -->
<svg version="1.1" id="Layer_1" xmlns="http://www.w3.org/2000/svg" xmlns:xlink="http://www.w3.org/1999/xlink" x="0px" y="0px"
	 viewBox="0 0 600 600" style="enable-background:new 0 0 600 600;" xml:space="preserve">
<style type="text/css">
	.st0{fill:#414549;}
</style>
<path class="st0" d="M461.3,295.2c-7.1,1.1-59.1,74.5-59.1,74.5s-110.8-167.9-125-167.9c-9.5,0-115.1,193.9-115.1,193.9
	s-56.7-64.8-60.3-65C90.1,330,4.4,493.8,4.4,493.8H596C596,493.8,468.3,294,461.3,295.2z M135.8,389.6c-4.2-2.1-10-3-14.8,3.3
	c-0.6,0.8-1.7,0.7-2.3-0.1c-2.9-4.1-11-13-21.8,0.6c-0.4,0.6-1.3,0.7-1.9,0.3c-2.7-1.9-10.2-6.1-17.8-2c-1.2,0.6-2.5-0.6-1.9-1.9
	c6.6-12.8,23.6-44,27.8-43.9c5.5,0.1,25.8,28.5,34.5,41.5C138.4,388.7,137.1,390.3,135.8,389.6z M329.5,292.7
	c-4.7-3.7-15.6-9.8-26,1.7c-0.1,0.2-0.5,0.2-0.6,0c-2.2-3-17.1-21.2-34.2,0c-0.1,0.2-0.4,0.2-0.6,0c-2.2-2.2-14.8-14.2-31.6-1.1
	c-0.4,0.3-0.9-0.1-0.6-0.5c6.5-11.5,39.8-69.8,44.7-68.5c4.9,1.4,41.1,55.1,49.6,67.8C330.3,292.5,329.8,293,329.5,292.7z
	 M491.8,355.2c-3.5-2.1-10.4-4.7-15.6,2.1c-0.2,0.3-0.6,0.4-0.9,0.1c-2.4-2.9-14.2-15-24.8-0.1c-0.2,0.3-0.6,0.4-0.9,0.1
	c-1.9-2.2-9.4-9.8-19.9-1.8c-0.5,0.4-1.2-0.2-0.9-0.8c6.1-10,25.6-40.9,30.4-42.3c5.8-1.6,27.2,32.5,33.3,41.9
	C493,354.9,492.4,355.5,491.8,355.2z"/>
</svg>
